<?xml version="1.0" standalone="no"?>
<!DOCTYPE svg PUBLIC "-//W3C//DTD SVG 20010904//EN"
 "http://www.w3.org/TR/2001/REC-SVG-20010904/DTD/svg10.dtd">
<svg version="1.0" xmlns="http://www.w3.org/2000/svg"
 width="200.000000pt" height="200.000000pt" viewBox="0 0 200.000000 200.000000"
 preserveAspectRatio="xMidYMid meet">
<metadata>
Created by potrace 1.11, written by Peter Selinger 2001-2013
</metadata>
<g transform="translate(0.000000,200.000000) scale(0.100000,-0.100000)"
fill="#000000" stroke="none">
<path d="M875 1959 c-60 -22 -126 -46 -145 -54 -19 -8 -168 -61 -330 -119
-162 -57 -303 -108 -313 -112 -17 -6 -18 -14 -12 -63 3 -31 8 -72 10 -91 2
-19 11 -98 20 -175 9 -77 18 -160 21 -185 5 -53 14 -124 19 -160 3 -14 7 -52
10 -86 3 -33 7 -76 10 -95 5 -37 23 -195 31 -274 6 -56 14 -109 17 -110 1 -1
49 -28 107 -60 58 -32 130 -71 160 -88 30 -16 69 -38 85 -47 17 -10 62 -35
100 -55 39 -21 82 -46 97 -57 14 -10 29 -18 33 -18 3 0 49 -25 103 -56 84 -49
99 -54 120 -44 45 20 747 412 759 424 7 6 14 29 17 51 10 77 27 220 32 265 3
25 7 56 9 70 2 14 7 57 10 95 4 39 8 77 10 85 2 8 7 44 10 80 3 36 8 72 10 80
2 8 7 47 10 85 4 39 14 133 24 210 10 77 17 157 17 179 l-1 38 -335 120 c-184
66 -390 140 -458 164 -67 24 -128 44 -135 43 -7 0 -61 -18 -122 -40z"/>
</g>
</svg>
